<svg width="1200" height="900" viewBox="0 0 1200 900" fill="none" xmlns="http://www.w3.org/2000/svg">
  <defs>
    <linearGradient id="bg" x1="120" y1="90" x2="1080" y2="820" gradientUnits="userSpaceOnUse">
      <stop stop-color="#F8FAFC"/>
      <stop offset="0.52" stop-color="#E0E7FF"/>
      <stop offset="1" stop-color="#F3F4F6"/>
    </linearGradient>
    <linearGradient id="accent" x1="260" y1="230" x2="930" y2="690" gradientUnits="userSpaceOnUse">
      <stop stop-color="#2563EB"/>
      <stop offset="1" stop-color="#7C3AED"/>
    </linearGradient>
  </defs>
  <rect width="1200" height="900" rx="48" fill="url(#bg)"/>
  <circle cx="976" cy="180" r="128" fill="#A5B4FC" fill-opacity="0.22"/>
  <circle cx="220" cy="192" r="92" fill="#93C5FD" fill-opacity="0.14"/>
  <rect x="170" y="150" width="860" height="600" rx="36" fill="#FFFFFF" fill-opacity="0.92" stroke="#E5E7EB"/>
  <rect x="232" y="208" width="740" height="74" rx="22" fill="#111827" fill-opacity="0.94"/>
  <circle cx="278" cy="245" r="10" fill="#F87171"/>
  <circle cx="310" cy="245" r="10" fill="#FBBF24"/>
  <circle cx="342" cy="245" r="10" fill="#4ADE80"/>
  <rect x="232" y="314" width="740" height="380" rx="30" fill="#0F172A" fill-opacity="0.94"/>
  <rect x="268" y="352" width="164" height="14" rx="7" fill="#93C5FD"/>
  <rect x="268" y="386" width="250" height="12" rx="6" fill="#334155"/>
  <rect x="268" y="420" width="190" height="12" rx="6" fill="#334155"/>
  <rect x="268" y="474" width="230" height="86" rx="24" fill="#111827" stroke="#334155"/>
  <path d="M308 538L352 494L396 538" stroke="url(#accent)" stroke-width="12" stroke-linecap="round" stroke-linejoin="round"/>
  <path d="M430 494H500" stroke="#93C5FD" stroke-width="10" stroke-linecap="round"/>
  <path d="M430 520H470" stroke="#7C3AED" stroke-width="10" stroke-linecap="round"/>
  <rect x="570" y="364" width="320" height="250" rx="28" fill="#111827" stroke="#334155"/>
  <rect x="602" y="396" width="120" height="18" rx="9" fill="#E2E8F0"/>
  <rect x="602" y="430" width="216" height="12" rx="6" fill="#475569"/>
  <rect x="602" y="458" width="180" height="12" rx="6" fill="#475569"/>
  <rect x="602" y="506" width="260" height="90" rx="20" fill="#1E293B" stroke="#334155"/>
  <path d="M632 568H700" stroke="#93C5FD" stroke-width="10" stroke-linecap="round"/>
  <path d="M632 540H736" stroke="#7C3AED" stroke-width="10" stroke-linecap="round"/>
  <circle cx="822" cy="544" r="26" fill="url(#accent)" fill-opacity="0.18"/>
  <path d="M810 544H834" stroke="#93C5FD" stroke-width="8" stroke-linecap="round"/>
  <path d="M822 532V556" stroke="#7C3AED" stroke-width="8" stroke-linecap="round"/>
</svg>
